<?xml version="1.0" standalone="no"?>
<!DOCTYPE svg PUBLIC "-//W3C//DTD SVG 20010904//EN"
 "http://www.w3.org/TR/2001/REC-SVG-20010904/DTD/svg10.dtd">
<svg version="1.0" xmlns="http://www.w3.org/2000/svg"
 width="640.000000pt" height="640.000000pt" viewBox="0 0 640.000000 640.000000"
 preserveAspectRatio="xMidYMid meet">
<g transform="translate(0.000000,640.000000) scale(0.100000,-0.100000)"
fill="#000000" stroke="none">
<path d="M4748 5515 c-1 -1 -57 -5 -123 -8 -66 -4 -131 -9 -145 -11 -29 -7
-130 -28 -145 -30 -23 -5 -145 -46 -162 -54 -10 -5 -49 -25 -88 -43 -38 -18
-71 -37 -73 -41 -2 -4 -8 -8 -13 -8 -12 0 -112 -67 -158 -106 -41 -36 -157
-150 -191 -190 -28 -32 -140 -198 -140 -207 0 -3 -15 -38 -34 -79 -30 -63 -50
-122 -61 -178 -2 -8 -4 -15 -5 -15 -3 0 -12 -46 -28 -155 -26 -178 13 -450 87
-613 17 -37 31 -70 31 -73 0 -3 5 -10 10 -17 6 -7 23 -31 38 -53 34 -52 87
-118 128 -158 43 -43 93 -86 99 -86 3 0 15 -8 26 -18 45 -43 219 -114 314
-129 96 -15 274 -8 353 15 167 48 310 166 379 314 13 27 25 62 28 77 3 14 9
40 14 58 17 59 11 202 -13 278 -50 162 -195 313 -264 276 -10 -6 -29 -37 -41
-71 -12 -33 -26 -60 -32 -60 -5 0 -9 -6 -9 -13 0 -18 -47 -61 -94 -86 -32 -16
-54 -20 -112 -17 -88 4 -161 36 -220 97 -21 22 -46 48 -55 57 -49 50 -113 204
-125 303 -8 60 -8 55 0 146 12 151 65 263 175 372 65 65 181 145 181 125 0 -4
6 -2 13 4 41 34 221 53 344 36 198 -26 384 -182 488 -408 36 -78 81 -219 90
-281 3 -22 8 -51 11 -65 25 -130 19 -470 -11 -625 -28 -146 -37 -184 -65 -283
-2 -4 -4 -11 -5 -17 -12 -44 -70 -208 -86 -242 -10 -24 -19 -46 -19 -49 0 -3
-17 -41 -37 -83 -20 -42 -37 -78 -37 -81 -1 -6 -95 -176 -113 -205 -7 -11 -16
-28 -19 -37 -3 -10 -10 -18 -15 -18 -5 0 -9 -5 -9 -11 0 -10 -125 -207 -140
-219 -3 -3 -23 -31 -44 -62 -21 -32 -46 -65 -55 -75 -9 -10 -29 -36 -45 -58
-17 -22 -32 -42 -35 -45 -4 -3 -24 -27 -46 -55 -22 -27 -45 -56 -52 -63 -7 -7
-29 -34 -50 -60 -21 -26 -41 -49 -44 -52 -4 -3 -23 -25 -44 -50 -20 -25 -54
-65 -75 -90 -74 -87 -225 -267 -265 -315 -22 -26 -44 -53 -50 -59 -12 -14
-104 -124 -125 -150 -8 -10 -20 -23 -25 -30 -6 -6 -30 -36 -55 -66 -25 -30
-51 -61 -58 -68 -7 -8 -25 -30 -40 -50 -15 -21 -29 -39 -32 -42 -51 -51 -149
-204 -150 -236 0 -7 345 -10 1153 -10 1055 1 1155 2 1177 18 32 21 130 114
130 122 0 4 8 16 19 27 24 26 64 109 89 184 37 111 43 318 12 400 -6 17 -11
32 -11 35 1 9 -21 71 -33 93 -55 103 -109 124 -137 54 -54 -137 -190 -244
-344 -272 -109 -20 -489 -28 -610 -12 -138 17 -215 60 -215 120 0 68 59 145
226 297 66 61 236 216 293 269 192 177 428 424 504 526 69 93 98 132 107 142
5 7 10 14 10 16 0 2 25 42 55 88 93 143 236 453 260 563 2 11 7 32 10 46 3 14
8 36 11 50 3 14 9 43 14 65 29 131 32 484 5 585 -2 8 -6 32 -9 53 -15 100 -84
305 -133 395 -13 23 -35 63 -49 90 -55 100 -201 271 -299 352 -94 77 -205 147
-305 193 -113 52 -304 99 -460 112 -41 4 -80 8 -87 10 -6 2 -13 2 -15 0z"/>
<path d="M807 5474 c-3 -3 -11 -7 -19 -8 -42 -7 -79 -50 -82 -96 -2 -33 71
-166 152 -275 18 -25 90 -184 102 -225 7 -25 16 -56 20 -70 8 -29 5 -188 -5
-240 -3 -19 -8 -46 -10 -60 -2 -14 -6 -36 -9 -50 -3 -14 -8 -36 -10 -50 -4
-21 -23 -100 -41 -170 -2 -8 -11 -44 -20 -80 -9 -36 -28 -103 -42 -150 -14
-47 -31 -105 -38 -130 -7 -25 -18 -58 -25 -75 -6 -16 -13 -37 -15 -45 -4 -19
-63 -200 -72 -220 -3 -8 -7 -22 -9 -31 -2 -9 -9 -29 -15 -45 -7 -16 -13 -33
-15 -39 -1 -5 -19 -55 -39 -110 -20 -55 -37 -104 -39 -110 -2 -5 -6 -19 -10
-30 -4 -11 -18 -49 -31 -85 -40 -114 -186 -500 -240 -640 -97 -248 -124 -378
-95 -452 35 -87 128 -139 275 -154 40 -3 681 -4 890 -1 l110 2 -1 -50 c-1 -67
-14 -243 -19 -258 -2 -7 -6 -31 -9 -54 -12 -96 -73 -281 -103 -311 -7 -7 -13
-17 -13 -22 0 -5 -12 -22 -26 -37 -14 -15 -29 -32 -32 -38 -4 -6 -29 -28 -57
-50 -57 -44 -116 -106 -110 -115 2 -3 374 -6 827 -6 898 1 840 -3 797 57 -11
16 -45 50 -77 76 -62 52 -72 63 -117 118 -72 90 -160 289 -194 440 -28 125
-35 177 -32 257 1 24 6 28 59 38 120 25 272 86 367 146 89 56 199 181 212 239
1 5 9 35 17 65 21 76 15 218 -14 289 -38 96 -114 186 -192 227 -57 30 -145 42
-211 29 -33 -6 -62 -18 -67 -25 -7 -12 5 -56 20 -70 3 -3 14 -29 24 -58 20
-58 23 -120 7 -150 -6 -11 -8 -22 -5 -24 3 -3 -18 -31 -46 -61 -59 -65 -138
-107 -216 -114 l-52 -5 -4 43 c-6 61 -1 604 6 719 15 225 17 254 31 410 5 59
15 146 20 184 2 17 7 54 10 81 13 111 53 374 70 468 3 15 7 38 9 52 4 21 33
166 41 200 26 121 27 202 3 237 -18 26 -65 47 -101 45 -52 -2 -137 -113 -247
-321 -34 -65 -75 -141 -91 -168 -16 -27 -29 -51 -29 -53 0 -3 -16 -29 -35 -59
-19 -30 -35 -57 -35 -60 0 -3 -15 -29 -33 -58 -80 -126 -119 -218 -132 -313
-4 -22 -8 -48 -11 -57 -3 -10 -7 -28 -9 -40 -6 -38 -28 -182 -30 -203 -2 -11
-6 -43 -10 -70 -14 -98 -26 -201 -31 -250 -1 -16 -3 -30 -4 -30 -1 0 -3 -16
-5 -35 -1 -19 -5 -55 -8 -80 -3 -25 -9 -72 -12 -105 -3 -33 -9 -76 -11 -95 -6
-38 -8 -58 -19 -170 -4 -41 -9 -86 -10 -100 -2 -14 -6 -52 -9 -85 -19 -183
-24 -209 -43 -223 -14 -10 -55 -12 -173 -7 -85 3 -166 7 -180 10 -14 3 -41 8
-60 11 -19 3 -44 7 -55 10 -11 2 -33 7 -50 10 -16 4 -34 10 -40 14 -5 4 -22
10 -36 13 -37 9 -106 62 -123 94 -44 87 -23 157 139 453 37 69 77 137 87 153
11 15 16 27 12 27 -3 0 -1 6 5 13 12 15 55 91 97 172 14 28 43 82 65 120 21
39 56 104 76 145 21 41 41 77 44 80 3 3 41 73 84 155 112 215 146 278 153 290
4 5 7 12 7 15 1 3 48 100 106 215 110 220 227 487 246 560 1 6 14 48 28 95 28
95 32 111 42 190 9 61 8 184 0 215 -3 11 -6 25 -6 31 -2 22 -63 89 -99 109
-33 18 -56 20 -210 20 -96 0 -175 -2 -177 -5 -4 -7 -144 -4 -220 4 -102 11
-149 16 -185 22 -54 8 -246 14 -253 8z"/>
</g>
</svg>
